<?xml version="1.0" encoding="us-ascii" standalone="no"?><svg xmlns="http://www.w3.org/2000/svg" xmlns:xlink="http://www.w3.org/1999/xlink" contentStyleType="text/css" height="711px" preserveAspectRatio="none" style="width:717px;height:711px;background:#FFFFFF;" version="1.1" viewBox="0 0 717 711" width="717px" zoomAndPan="magnify"><defs/><g><ellipse cx="214.5" cy="48" fill="#181818" rx="30" ry="30" style="stroke:none;stroke-width:3.0;"/><g id="State1"><rect fill="#F1F1F1" height="196.8004" rx="37.5" ry="37.5" style="stroke:#181818;stroke-width:1.5;" width="387" x="21" y="258"/><line style="stroke:#181818;stroke-width:1.5;" x1="21" x2="408" y1="338.3998" y2="338.3998"/><text fill="#000000" font-family="sans-serif" font-size="42" lengthAdjust="spacing" textLength="123" x="153" y="312.0178">State1</text><text fill="#000000" font-family="sans-serif" font-size="36" lengthAdjust="spacing" textLength="222" x="36" y="386.844">this is a string</text><text fill="#000000" font-family="sans-serif" font-size="36" lengthAdjust="spacing" textLength="327" x="36" y="430.0443">this is another string</text></g><ellipse cx="409.5" cy="664.8" fill="none" rx="30" ry="30" style="stroke:#181818;stroke-width:3.0;"/><ellipse cx="411" cy="666.3" fill="#181818" rx="18" ry="18" style="stroke:none;stroke-width:3.0;"/><g id="State2"><rect fill="#F1F1F1" height="150" rx="37.5" ry="37.5" style="stroke:#181818;stroke-width:1.5;" width="183" x="513" y="281.4"/><line style="stroke:#181818;stroke-width:1.5;" x1="513" x2="696" y1="361.7998" y2="361.7998"/><text fill="#000000" font-family="sans-serif" font-size="42" lengthAdjust="spacing" textLength="123" x="543" y="335.4178">State2</text></g><!--link *start* to State1--><g id="link_*start*_State1"><path d="M214.5,78.9 C214.5,115.2 214.5,180.87 214.5,238.86 " fill="none" id="*start*-to-State1" style="stroke:#181818;stroke-width:3.0;"/><polygon fill="#181818" points="214.5,253.56,226.5,226.56,214.5,238.56,202.5,226.56,214.5,253.56" style="stroke:#181818;stroke-width:3.0;"/></g><!--link State1 to *end*--><g id="link_State1_*end*"><path d="M276.75,455.91 C313.65,513.18 358.38,582.54 385.35,624.36 " fill="none" id="State1-to-*end*" style="stroke:#181818;stroke-width:3.0;"/><polygon fill="#181818" points="394.44,635.46,389.8635,606.27,386.2983,622.8619,369.7065,619.2967,394.44,635.46" style="stroke:#181818;stroke-width:3.0;"/></g><!--link State1 to State2--><g id="link_State1_State2"><path d="M409.5,356.4 C437.67,356.4 465.84,356.4 494.04,356.4 " fill="none" id="State1-to-State2" style="stroke:#181818;stroke-width:3.0;"/><polygon fill="#181818" points="508.56,356.4,481.56,344.4,493.56,356.4,481.56,368.4,508.56,356.4" style="stroke:#181818;stroke-width:3.0;"/></g><!--link State2 to *end*--><g id="link_State2_*end*"><path d="M557.31,432.6 C518.4,492.9 464.82,576 434.01,623.79 " fill="none" id="State2-to-*end*" style="stroke:#181818;stroke-width:3.0;"/><polygon fill="#181818" points="424.47,635.58,449.1646,619.3573,432.5814,622.9623,428.9763,606.3791,424.47,635.58" style="stroke:#181818;stroke-width:3.0;"/></g><!--SRC=[AqvEp4bLCERYYjQALT3LjLC8BaaiIJNaWb1W4Q0CZ6kbK9AHMQm0H8aAnIL5cNdfM6JoyaioKejWyd2Je4ORGGICu4O30000]--></g></svg>